<svg xmlns="http://www.w3.org/2000/svg" viewBox="0 0 1023 1023">
<g>
<g fill="#0a0a0b">
<circle cx="124.42" cy="124.42" r="13.27"/>
<circle cx="152.07" cy="124.42" r="13.27"/>
<circle cx="179.72" cy="124.42" r="13.27"/>
<circle cx="207.36" cy="124.42" r="13.27"/>
<circle cx="235.01" cy="124.42" r="13.27"/>
<circle cx="262.66" cy="124.42" r="13.27"/>
<circle cx="290.31" cy="124.42" r="13.27"/>
<circle cx="373.26" cy="124.42" r="13.27"/>
<circle cx="400.91" cy="124.42" r="13.27"/>
<circle cx="456.20" cy="124.42" r="13.27"/>
<circle cx="483.85" cy="124.42" r="13.27"/>
<circle cx="539.15" cy="124.42" r="13.27"/>
<circle cx="566.80" cy="124.42" r="13.27"/>
<circle cx="594.45" cy="124.42" r="13.27"/>
<circle cx="649.74" cy="124.42" r="13.27"/>
<circle cx="677.39" cy="124.42" r="13.27"/>
<circle cx="732.69" cy="124.42" r="13.27"/>
<circle cx="760.34" cy="124.42" r="13.27"/>
<circle cx="787.99" cy="124.42" r="13.27"/>
<circle cx="815.64" cy="124.42" r="13.27"/>
<circle cx="843.28" cy="124.42" r="13.27"/>
<circle cx="870.93" cy="124.42" r="13.27"/>
<circle cx="898.58" cy="124.42" r="13.27"/>
<circle cx="124.42" cy="152.07" r="13.27"/>
<circle cx="290.31" cy="152.07" r="13.27"/>
<circle cx="345.61" cy="152.07" r="13.27"/>
<circle cx="373.26" cy="152.07" r="13.27"/>
<circle cx="400.91" cy="152.07" r="13.27"/>
<circle cx="428.55" cy="152.07" r="13.27"/>
<circle cx="483.85" cy="152.07" r="13.27"/>
<circle cx="594.45" cy="152.07" r="13.27"/>
<circle cx="622.09" cy="152.07" r="13.27"/>
<circle cx="677.39" cy="152.07" r="13.27"/>
<circle cx="732.69" cy="152.07" r="13.27"/>
<circle cx="898.58" cy="152.07" r="13.27"/>
<circle cx="124.42" cy="179.72" r="13.27"/>
<circle cx="179.72" cy="179.72" r="13.27"/>
<circle cx="207.36" cy="179.72" r="13.27"/>
<circle cx="235.01" cy="179.72" r="13.27"/>
<circle cx="290.31" cy="179.72" r="13.27"/>
<circle cx="345.61" cy="179.72" r="13.27"/>
<circle cx="373.26" cy="179.72" r="13.27"/>
<circle cx="511.50" cy="179.72" r="13.27"/>
<circle cx="539.15" cy="179.72" r="13.27"/>
<circle cx="566.80" cy="179.72" r="13.27"/>
<circle cx="594.45" cy="179.72" r="13.27"/>
<circle cx="649.74" cy="179.72" r="13.27"/>
<circle cx="677.39" cy="179.72" r="13.27"/>
<circle cx="732.69" cy="179.72" r="13.27"/>
<circle cx="787.99" cy="179.72" r="13.27"/>
<circle cx="815.64" cy="179.72" r="13.27"/>
<circle cx="843.28" cy="179.72" r="13.27"/>
<circle cx="898.58" cy="179.72" r="13.27"/>
<circle cx="124.42" cy="207.36" r="13.27"/>
<circle cx="179.72" cy="207.36" r="13.27"/>
<circle cx="207.36" cy="207.36" r="13.27"/>
<circle cx="235.01" cy="207.36" r="13.27"/>
<circle cx="290.31" cy="207.36" r="13.27"/>
<circle cx="345.61" cy="207.36" r="13.27"/>
<circle cx="373.26" cy="207.36" r="13.27"/>
<circle cx="456.20" cy="207.36" r="13.27"/>
<circle cx="511.50" cy="207.36" r="13.27"/>
<circle cx="594.45" cy="207.36" r="13.27"/>
<circle cx="622.09" cy="207.36" r="13.27"/>
<circle cx="732.69" cy="207.36" r="13.27"/>
<circle cx="787.99" cy="207.36" r="13.27"/>
<circle cx="815.64" cy="207.36" r="13.27"/>
<circle cx="843.28" cy="207.36" r="13.27"/>
<circle cx="898.58" cy="207.36" r="13.27"/>
<circle cx="124.42" cy="235.01" r="13.27"/>
<circle cx="179.72" cy="235.01" r="13.27"/>
<circle cx="207.36" cy="235.01" r="13.27"/>
<circle cx="235.01" cy="235.01" r="13.27"/>
<circle cx="290.31" cy="235.01" r="13.27"/>
<circle cx="345.61" cy="235.01" r="13.27"/>
<circle cx="373.26" cy="235.01" r="13.27"/>
<circle cx="428.55" cy="235.01" r="13.27"/>
<circle cx="483.85" cy="235.01" r="13.27"/>
<circle cx="511.50" cy="235.01" r="13.27"/>
<circle cx="539.15" cy="235.01" r="13.27"/>
<circle cx="622.09" cy="235.01" r="13.27"/>
<circle cx="732.69" cy="235.01" r="13.27"/>
<circle cx="787.99" cy="235.01" r="13.27"/>
<circle cx="815.64" cy="235.01" r="13.27"/>
<circle cx="843.28" cy="235.01" r="13.27"/>
<circle cx="898.58" cy="235.01" r="13.27"/>
<circle cx="124.42" cy="262.66" r="13.27"/>
<circle cx="290.31" cy="262.66" r="13.27"/>
<circle cx="345.61" cy="262.66" r="13.27"/>
<circle cx="400.91" cy="262.66" r="13.27"/>
<circle cx="456.20" cy="262.66" r="13.27"/>
<circle cx="539.15" cy="262.66" r="13.27"/>
<circle cx="566.80" cy="262.66" r="13.27"/>
<circle cx="594.45" cy="262.66" r="13.27"/>
<circle cx="622.09" cy="262.66" r="13.27"/>
<circle cx="677.39" cy="262.66" r="13.27"/>
<circle cx="732.69" cy="262.66" r="13.27"/>
<circle cx="898.58" cy="262.66" r="13.27"/>
<circle cx="124.42" cy="290.31" r="13.27"/>
<circle cx="152.07" cy="290.31" r="13.27"/>
<circle cx="179.72" cy="290.31" r="13.27"/>
<circle cx="207.36" cy="290.31" r="13.27"/>
<circle cx="235.01" cy="290.31" r="13.27"/>
<circle cx="262.66" cy="290.31" r="13.27"/>
<circle cx="290.31" cy="290.31" r="13.27"/>
<circle cx="345.61" cy="290.31" r="13.27"/>
<circle cx="400.91" cy="290.31" r="13.27"/>
<circle cx="456.20" cy="290.31" r="13.27"/>
<circle cx="511.50" cy="290.31" r="13.27"/>
<circle cx="566.80" cy="290.31" r="13.27"/>
<circle cx="622.09" cy="290.31" r="13.27"/>
<circle cx="677.39" cy="290.31" r="13.27"/>
<circle cx="732.69" cy="290.31" r="13.27"/>
<circle cx="760.34" cy="290.31" r="13.27"/>
<circle cx="787.99" cy="290.31" r="13.27"/>
<circle cx="815.64" cy="290.31" r="13.27"/>
<circle cx="843.28" cy="290.31" r="13.27"/>
<circle cx="870.93" cy="290.31" r="13.27"/>
<circle cx="898.58" cy="290.31" r="13.27"/>
<circle cx="373.26" cy="317.96" r="13.27"/>
<circle cx="483.85" cy="317.96" r="13.27"/>
<circle cx="511.50" cy="317.96" r="13.27"/>
<circle cx="594.45" cy="317.96" r="13.27"/>
<circle cx="179.72" cy="345.61" r="13.27"/>
<circle cx="262.66" cy="345.61" r="13.27"/>
<circle cx="290.31" cy="345.61" r="13.27"/>
<circle cx="317.96" cy="345.61" r="13.27"/>
<circle cx="345.61" cy="345.61" r="13.27"/>
<circle cx="373.26" cy="345.61" r="13.27"/>
<circle cx="400.91" cy="345.61" r="13.27"/>
<circle cx="428.55" cy="345.61" r="13.27"/>
<circle cx="511.50" cy="345.61" r="13.27"/>
<circle cx="539.15" cy="345.61" r="13.27"/>
<circle cx="594.45" cy="345.61" r="13.27"/>
<circle cx="677.39" cy="345.61" r="13.27"/>
<circle cx="705.04" cy="345.61" r="13.27"/>
<circle cx="760.34" cy="345.61" r="13.27"/>
<circle cx="787.99" cy="345.61" r="13.27"/>
<circle cx="815.64" cy="345.61" r="13.27"/>
<circle cx="843.28" cy="345.61" r="13.27"/>
<circle cx="870.93" cy="345.61" r="13.27"/>
<circle cx="179.72" cy="373.26" r="13.27"/>
<circle cx="262.66" cy="373.26" r="13.27"/>
<circle cx="317.96" cy="373.26" r="13.27"/>
<circle cx="345.61" cy="373.26" r="13.27"/>
<circle cx="373.26" cy="373.26" r="13.27"/>
<circle cx="400.91" cy="373.26" r="13.27"/>
<circle cx="483.85" cy="373.26" r="13.27"/>
<circle cx="566.80" cy="373.26" r="13.27"/>
<circle cx="677.39" cy="373.26" r="13.27"/>
<circle cx="732.69" cy="373.26" r="13.27"/>
<circle cx="843.28" cy="373.26" r="13.27"/>
<circle cx="870.93" cy="373.26" r="13.27"/>
<circle cx="898.58" cy="373.26" r="13.27"/>
<circle cx="124.42" cy="400.91" r="13.27"/>
<circle cx="152.07" cy="400.91" r="13.27"/>
<circle cx="179.72" cy="400.91" r="13.27"/>
<circle cx="207.36" cy="400.91" r="13.27"/>
<circle cx="235.01" cy="400.91" r="13.27"/>
<circle cx="290.31" cy="400.91" r="13.27"/>
<circle cx="345.61" cy="400.91" r="13.27"/>
<circle cx="400.91" cy="400.91" r="13.27"/>
<circle cx="428.55" cy="400.91" r="13.27"/>
<circle cx="456.20" cy="400.91" r="13.27"/>
<circle cx="511.50" cy="400.91" r="13.27"/>
<circle cx="622.09" cy="400.91" r="13.27"/>
<circle cx="677.39" cy="400.91" r="13.27"/>
<circle cx="705.04" cy="400.91" r="13.27"/>
<circle cx="815.64" cy="400.91" r="13.27"/>
<circle cx="843.28" cy="400.91" r="13.27"/>
<circle cx="898.58" cy="400.91" r="13.27"/>
<circle cx="152.07" cy="428.55" r="13.27"/>
<circle cx="207.36" cy="428.55" r="13.27"/>
<circle cx="262.66" cy="428.55" r="13.27"/>
<circle cx="373.26" cy="428.55" r="13.27"/>
<circle cx="594.45" cy="428.55" r="13.27"/>
<circle cx="622.09" cy="428.55" r="13.27"/>
<circle cx="649.74" cy="428.55" r="13.27"/>
<circle cx="677.39" cy="428.55" r="13.27"/>
<circle cx="732.69" cy="428.55" r="13.27"/>
<circle cx="815.64" cy="428.55" r="13.27"/>
<circle cx="152.07" cy="456.20" r="13.27"/>
<circle cx="179.72" cy="456.20" r="13.27"/>
<circle cx="207.36" cy="456.20" r="13.27"/>
<circle cx="262.66" cy="456.20" r="13.27"/>
<circle cx="290.31" cy="456.20" r="13.27"/>
<circle cx="400.91" cy="456.20" r="13.27"/>
<circle cx="428.55" cy="456.20" r="13.27"/>
<circle cx="483.85" cy="456.20" r="13.27"/>
<circle cx="511.50" cy="456.20" r="13.27"/>
<circle cx="539.15" cy="456.20" r="13.27"/>
<circle cx="566.80" cy="456.20" r="13.27"/>
<circle cx="594.45" cy="456.20" r="13.27"/>
<circle cx="622.09" cy="456.20" r="13.27"/>
<circle cx="677.39" cy="456.20" r="13.27"/>
<circle cx="705.04" cy="456.20" r="13.27"/>
<circle cx="732.69" cy="456.20" r="13.27"/>
<circle cx="815.64" cy="456.20" r="13.27"/>
<circle cx="870.93" cy="456.20" r="13.27"/>
<circle cx="152.07" cy="483.85" r="13.27"/>
<circle cx="262.66" cy="483.85" r="13.27"/>
<circle cx="317.96" cy="483.85" r="13.27"/>
<circle cx="345.61" cy="483.85" r="13.27"/>
<circle cx="373.26" cy="483.85" r="13.27"/>
<circle cx="428.55" cy="483.85" r="13.27"/>
<circle cx="456.20" cy="483.85" r="13.27"/>
<circle cx="483.85" cy="483.85" r="13.27"/>
<circle cx="539.15" cy="483.85" r="13.27"/>
<circle cx="566.80" cy="483.85" r="13.27"/>
<circle cx="649.74" cy="483.85" r="13.27"/>
<circle cx="677.39" cy="483.85" r="13.27"/>
<circle cx="732.69" cy="483.85" r="13.27"/>
<circle cx="815.64" cy="483.85" r="13.27"/>
<circle cx="898.58" cy="483.85" r="13.27"/>
<circle cx="124.42" cy="511.50" r="13.27"/>
<circle cx="152.07" cy="511.50" r="13.27"/>
<circle cx="179.72" cy="511.50" r="13.27"/>
<circle cx="235.01" cy="511.50" r="13.27"/>
<circle cx="290.31" cy="511.50" r="13.27"/>
<circle cx="345.61" cy="511.50" r="13.27"/>
<circle cx="428.55" cy="511.50" r="13.27"/>
<circle cx="456.20" cy="511.50" r="13.27"/>
<circle cx="483.85" cy="511.50" r="13.27"/>
<circle cx="539.15" cy="511.50" r="13.27"/>
<circle cx="566.80" cy="511.50" r="13.27"/>
<circle cx="622.09" cy="511.50" r="13.27"/>
<circle cx="649.74" cy="511.50" r="13.27"/>
<circle cx="677.39" cy="511.50" r="13.27"/>
<circle cx="815.64" cy="511.50" r="13.27"/>
<circle cx="843.28" cy="511.50" r="13.27"/>
<circle cx="898.58" cy="511.50" r="13.27"/>
<circle cx="179.72" cy="539.15" r="13.27"/>
<circle cx="235.01" cy="539.15" r="13.27"/>
<circle cx="317.96" cy="539.15" r="13.27"/>
<circle cx="345.61" cy="539.15" r="13.27"/>
<circle cx="428.55" cy="539.15" r="13.27"/>
<circle cx="483.85" cy="539.15" r="13.27"/>
<circle cx="511.50" cy="539.15" r="13.27"/>
<circle cx="539.15" cy="539.15" r="13.27"/>
<circle cx="594.45" cy="539.15" r="13.27"/>
<circle cx="622.09" cy="539.15" r="13.27"/>
<circle cx="677.39" cy="539.15" r="13.27"/>
<circle cx="732.69" cy="539.15" r="13.27"/>
<circle cx="815.64" cy="539.15" r="13.27"/>
<circle cx="179.72" cy="566.80" r="13.27"/>
<circle cx="235.01" cy="566.80" r="13.27"/>
<circle cx="262.66" cy="566.80" r="13.27"/>
<circle cx="290.31" cy="566.80" r="13.27"/>
<circle cx="345.61" cy="566.80" r="13.27"/>
<circle cx="400.91" cy="566.80" r="13.27"/>
<circle cx="456.20" cy="566.80" r="13.27"/>
<circle cx="483.85" cy="566.80" r="13.27"/>
<circle cx="511.50" cy="566.80" r="13.27"/>
<circle cx="539.15" cy="566.80" r="13.27"/>
<circle cx="566.80" cy="566.80" r="13.27"/>
<circle cx="622.09" cy="566.80" r="13.27"/>
<circle cx="649.74" cy="566.80" r="13.27"/>
<circle cx="677.39" cy="566.80" r="13.27"/>
<circle cx="732.69" cy="566.80" r="13.27"/>
<circle cx="898.58" cy="566.80" r="13.27"/>
<circle cx="152.07" cy="594.45" r="13.27"/>
<circle cx="207.36" cy="594.45" r="13.27"/>
<circle cx="317.96" cy="594.45" r="13.27"/>
<circle cx="345.61" cy="594.45" r="13.27"/>
<circle cx="428.55" cy="594.45" r="13.27"/>
<circle cx="566.80" cy="594.45" r="13.27"/>
<circle cx="594.45" cy="594.45" r="13.27"/>
<circle cx="622.09" cy="594.45" r="13.27"/>
<circle cx="732.69" cy="594.45" r="13.27"/>
<circle cx="760.34" cy="594.45" r="13.27"/>
<circle cx="843.28" cy="594.45" r="13.27"/>
<circle cx="898.58" cy="594.45" r="13.27"/>
<circle cx="124.42" cy="622.09" r="13.27"/>
<circle cx="152.07" cy="622.09" r="13.27"/>
<circle cx="179.72" cy="622.09" r="13.27"/>
<circle cx="207.36" cy="622.09" r="13.27"/>
<circle cx="235.01" cy="622.09" r="13.27"/>
<circle cx="262.66" cy="622.09" r="13.27"/>
<circle cx="290.31" cy="622.09" r="13.27"/>
<circle cx="317.96" cy="622.09" r="13.27"/>
<circle cx="345.61" cy="622.09" r="13.27"/>
<circle cx="373.26" cy="622.09" r="13.27"/>
<circle cx="400.91" cy="622.09" r="13.27"/>
<circle cx="428.55" cy="622.09" r="13.27"/>
<circle cx="456.20" cy="622.09" r="13.27"/>
<circle cx="483.85" cy="622.09" r="13.27"/>
<circle cx="511.50" cy="622.09" r="13.27"/>
<circle cx="539.15" cy="622.09" r="13.27"/>
<circle cx="566.80" cy="622.09" r="13.27"/>
<circle cx="649.74" cy="622.09" r="13.27"/>
<circle cx="843.28" cy="622.09" r="13.27"/>
<circle cx="898.58" cy="622.09" r="13.27"/>
<circle cx="235.01" cy="649.74" r="13.27"/>
<circle cx="345.61" cy="649.74" r="13.27"/>
<circle cx="400.91" cy="649.74" r="13.27"/>
<circle cx="428.55" cy="649.74" r="13.27"/>
<circle cx="456.20" cy="649.74" r="13.27"/>
<circle cx="594.45" cy="649.74" r="13.27"/>
<circle cx="622.09" cy="649.74" r="13.27"/>
<circle cx="705.04" cy="649.74" r="13.27"/>
<circle cx="732.69" cy="649.74" r="13.27"/>
<circle cx="760.34" cy="649.74" r="13.27"/>
<circle cx="815.64" cy="649.74" r="13.27"/>
<circle cx="870.93" cy="649.74" r="13.27"/>
<circle cx="124.42" cy="677.39" r="13.27"/>
<circle cx="152.07" cy="677.39" r="13.27"/>
<circle cx="179.72" cy="677.39" r="13.27"/>
<circle cx="235.01" cy="677.39" r="13.27"/>
<circle cx="290.31" cy="677.39" r="13.27"/>
<circle cx="317.96" cy="677.39" r="13.27"/>
<circle cx="345.61" cy="677.39" r="13.27"/>
<circle cx="456.20" cy="677.39" r="13.27"/>
<circle cx="511.50" cy="677.39" r="13.27"/>
<circle cx="539.15" cy="677.39" r="13.27"/>
<circle cx="594.45" cy="677.39" r="13.27"/>
<circle cx="677.39" cy="677.39" r="13.27"/>
<circle cx="705.04" cy="677.39" r="13.27"/>
<circle cx="732.69" cy="677.39" r="13.27"/>
<circle cx="760.34" cy="677.39" r="13.27"/>
<circle cx="787.99" cy="677.39" r="13.27"/>
<circle cx="815.64" cy="677.39" r="13.27"/>
<circle cx="898.58" cy="677.39" r="13.27"/>
<circle cx="345.61" cy="705.04" r="13.27"/>
<circle cx="400.91" cy="705.04" r="13.27"/>
<circle cx="428.55" cy="705.04" r="13.27"/>
<circle cx="456.20" cy="705.04" r="13.27"/>
<circle cx="511.50" cy="705.04" r="13.27"/>
<circle cx="539.15" cy="705.04" r="13.27"/>
<circle cx="622.09" cy="705.04" r="13.27"/>
<circle cx="677.39" cy="705.04" r="13.27"/>
<circle cx="787.99" cy="705.04" r="13.27"/>
<circle cx="815.64" cy="705.04" r="13.27"/>
<circle cx="870.93" cy="705.04" r="13.27"/>
<circle cx="898.58" cy="705.04" r="13.27"/>
<circle cx="124.42" cy="732.69" r="13.27"/>
<circle cx="152.07" cy="732.69" r="13.27"/>
<circle cx="179.72" cy="732.69" r="13.27"/>
<circle cx="207.36" cy="732.69" r="13.27"/>
<circle cx="235.01" cy="732.69" r="13.27"/>
<circle cx="262.66" cy="732.69" r="13.27"/>
<circle cx="290.31" cy="732.69" r="13.27"/>
<circle cx="345.61" cy="732.69" r="13.27"/>
<circle cx="483.85" cy="732.69" r="13.27"/>
<circle cx="511.50" cy="732.69" r="13.27"/>
<circle cx="539.15" cy="732.69" r="13.27"/>
<circle cx="594.45" cy="732.69" r="13.27"/>
<circle cx="622.09" cy="732.69" r="13.27"/>
<circle cx="677.39" cy="732.69" r="13.27"/>
<circle cx="732.69" cy="732.69" r="13.27"/>
<circle cx="787.99" cy="732.69" r="13.27"/>
<circle cx="815.64" cy="732.69" r="13.27"/>
<circle cx="843.28" cy="732.69" r="13.27"/>
<circle cx="898.58" cy="732.69" r="13.27"/>
<circle cx="124.42" cy="760.34" r="13.27"/>
<circle cx="290.31" cy="760.34" r="13.27"/>
<circle cx="345.61" cy="760.34" r="13.27"/>
<circle cx="373.26" cy="760.34" r="13.27"/>
<circle cx="428.55" cy="760.34" r="13.27"/>
<circle cx="483.85" cy="760.34" r="13.27"/>
<circle cx="566.80" cy="760.34" r="13.27"/>
<circle cx="622.09" cy="760.34" r="13.27"/>
<circle cx="649.74" cy="760.34" r="13.27"/>
<circle cx="677.39" cy="760.34" r="13.27"/>
<circle cx="787.99" cy="760.34" r="13.27"/>
<circle cx="815.64" cy="760.34" r="13.27"/>
<circle cx="870.93" cy="760.34" r="13.27"/>
<circle cx="124.42" cy="787.99" r="13.27"/>
<circle cx="179.72" cy="787.99" r="13.27"/>
<circle cx="207.36" cy="787.99" r="13.27"/>
<circle cx="235.01" cy="787.99" r="13.27"/>
<circle cx="290.31" cy="787.99" r="13.27"/>
<circle cx="373.26" cy="787.99" r="13.27"/>
<circle cx="400.91" cy="787.99" r="13.27"/>
<circle cx="456.20" cy="787.99" r="13.27"/>
<circle cx="511.50" cy="787.99" r="13.27"/>
<circle cx="566.80" cy="787.99" r="13.27"/>
<circle cx="594.45" cy="787.99" r="13.27"/>
<circle cx="622.09" cy="787.99" r="13.27"/>
<circle cx="649.74" cy="787.99" r="13.27"/>
<circle cx="677.39" cy="787.99" r="13.27"/>
<circle cx="705.04" cy="787.99" r="13.27"/>
<circle cx="732.69" cy="787.99" r="13.27"/>
<circle cx="760.34" cy="787.99" r="13.27"/>
<circle cx="787.99" cy="787.99" r="13.27"/>
<circle cx="870.93" cy="787.99" r="13.27"/>
<circle cx="124.42" cy="815.64" r="13.27"/>
<circle cx="179.72" cy="815.64" r="13.27"/>
<circle cx="207.36" cy="815.64" r="13.27"/>
<circle cx="235.01" cy="815.64" r="13.27"/>
<circle cx="290.31" cy="815.64" r="13.27"/>
<circle cx="373.26" cy="815.64" r="13.27"/>
<circle cx="428.55" cy="815.64" r="13.27"/>
<circle cx="511.50" cy="815.64" r="13.27"/>
<circle cx="594.45" cy="815.64" r="13.27"/>
<circle cx="649.74" cy="815.64" r="13.27"/>
<circle cx="677.39" cy="815.64" r="13.27"/>
<circle cx="760.34" cy="815.64" r="13.27"/>
<circle cx="787.99" cy="815.64" r="13.27"/>
<circle cx="815.64" cy="815.64" r="13.27"/>
<circle cx="843.28" cy="815.64" r="13.27"/>
<circle cx="870.93" cy="815.64" r="13.27"/>
<circle cx="124.42" cy="843.28" r="13.27"/>
<circle cx="179.72" cy="843.28" r="13.27"/>
<circle cx="207.36" cy="843.28" r="13.27"/>
<circle cx="235.01" cy="843.28" r="13.27"/>
<circle cx="290.31" cy="843.28" r="13.27"/>
<circle cx="345.61" cy="843.28" r="13.27"/>
<circle cx="373.26" cy="843.28" r="13.27"/>
<circle cx="428.55" cy="843.28" r="13.27"/>
<circle cx="456.20" cy="843.28" r="13.27"/>
<circle cx="539.15" cy="843.28" r="13.27"/>
<circle cx="566.80" cy="843.28" r="13.27"/>
<circle cx="705.04" cy="843.28" r="13.27"/>
<circle cx="787.99" cy="843.28" r="13.27"/>
<circle cx="815.64" cy="843.28" r="13.27"/>
<circle cx="870.93" cy="843.28" r="13.27"/>
<circle cx="898.58" cy="843.28" r="13.27"/>
<circle cx="124.42" cy="870.93" r="13.27"/>
<circle cx="290.31" cy="870.93" r="13.27"/>
<circle cx="373.26" cy="870.93" r="13.27"/>
<circle cx="400.91" cy="870.93" r="13.27"/>
<circle cx="483.85" cy="870.93" r="13.27"/>
<circle cx="539.15" cy="870.93" r="13.27"/>
<circle cx="566.80" cy="870.93" r="13.27"/>
<circle cx="677.39" cy="870.93" r="13.27"/>
<circle cx="815.64" cy="870.93" r="13.27"/>
<circle cx="124.42" cy="898.58" r="13.27"/>
<circle cx="152.07" cy="898.58" r="13.27"/>
<circle cx="179.72" cy="898.58" r="13.27"/>
<circle cx="207.36" cy="898.58" r="13.27"/>
<circle cx="235.01" cy="898.58" r="13.27"/>
<circle cx="262.66" cy="898.58" r="13.27"/>
<circle cx="290.31" cy="898.58" r="13.27"/>
<circle cx="483.85" cy="898.58" r="13.27"/>
<circle cx="566.80" cy="898.58" r="13.27"/>
<circle cx="594.45" cy="898.58" r="13.27"/>
<circle cx="677.39" cy="898.58" r="13.27"/>
<circle cx="732.69" cy="898.58" r="13.27"/>
<circle cx="760.34" cy="898.58" r="13.27"/>
<circle cx="787.99" cy="898.58" r="13.27"/>
<circle cx="815.64" cy="898.58" r="13.27"/>
<circle cx="898.58" cy="898.58" r="13.27"/>
</g>
</g>
</svg>
