<svg xmlns="http://www.w3.org/2000/svg" viewBox="0 0 1056 1056" width="1056" height="1056" role="img" aria-label="digiquant.io">
<rect width="1056" height="1056" rx="168" fill="#FBFBF9"/>
<rect x="128" y="128" width="32" height="32" rx="6" fill="#0B0C0E"/>
<rect x="160" y="128" width="32" height="32" rx="6" fill="#0B0C0E"/>
<rect x="192" y="128" width="32" height="32" rx="6" fill="#0B0C0E"/>
<rect x="224" y="128" width="32" height="32" rx="6" fill="#0B0C0E"/>
<rect x="256" y="128" width="32" height="32" rx="6" fill="#0B0C0E"/>
<rect x="288" y="128" width="32" height="32" rx="6" fill="#0B0C0E"/>
<rect x="320" y="128" width="32" height="32" rx="6" fill="#0B0C0E"/>
<rect x="448" y="128" width="32" height="32" rx="6" fill="#0B0C0E"/>
<rect x="512" y="128" width="32" height="32" rx="6" fill="#0B0C0E"/>
<rect x="576" y="128" width="32" height="32" rx="6" fill="#0B0C0E"/>
<rect x="640" y="128" width="32" height="32" rx="6" fill="#0B0C0E"/>
<rect x="704" y="128" width="32" height="32" rx="6" fill="#0B0C0E"/>
<rect x="736" y="128" width="32" height="32" rx="6" fill="#0B0C0E"/>
<rect x="768" y="128" width="32" height="32" rx="6" fill="#0B0C0E"/>
<rect x="800" y="128" width="32" height="32" rx="6" fill="#0B0C0E"/>
<rect x="832" y="128" width="32" height="32" rx="6" fill="#0B0C0E"/>
<rect x="864" y="128" width="32" height="32" rx="6" fill="#0B0C0E"/>
<rect x="896" y="128" width="32" height="32" rx="6" fill="#0B0C0E"/>
<rect x="128" y="160" width="32" height="32" rx="6" fill="#0B0C0E"/>
<rect x="320" y="160" width="32" height="32" rx="6" fill="#0B0C0E"/>
<rect x="384" y="160" width="32" height="32" rx="6" fill="#0B0C0E"/>
<rect x="416" y="160" width="32" height="32" rx="6" fill="#0B0C0E"/>
<rect x="480" y="160" width="32" height="32" rx="6" fill="#0B0C0E"/>
<rect x="704" y="160" width="32" height="32" rx="6" fill="#0B0C0E"/>
<rect x="896" y="160" width="32" height="32" rx="6" fill="#0B0C0E"/>
<rect x="128" y="192" width="32" height="32" rx="6" fill="#0B0C0E"/>
<rect x="192" y="192" width="32" height="32" rx="6" fill="#0B0C0E"/>
<rect x="224" y="192" width="32" height="32" rx="6" fill="#0B0C0E"/>
<rect x="256" y="192" width="32" height="32" rx="6" fill="#0B0C0E"/>
<rect x="320" y="192" width="32" height="32" rx="6" fill="#0B0C0E"/>
<rect x="448" y="192" width="32" height="32" rx="6" fill="#0B0C0E"/>
<rect x="544" y="192" width="32" height="32" rx="6" fill="#0B0C0E"/>
<rect x="608" y="192" width="32" height="32" rx="6" fill="#0B0C0E"/>
<rect x="704" y="192" width="32" height="32" rx="6" fill="#0B0C0E"/>
<rect x="768" y="192" width="32" height="32" rx="6" fill="#0B0C0E"/>
<rect x="800" y="192" width="32" height="32" rx="6" fill="#0B0C0E"/>
<rect x="832" y="192" width="32" height="32" rx="6" fill="#0B0C0E"/>
<rect x="896" y="192" width="32" height="32" rx="6" fill="#0B0C0E"/>
<rect x="128" y="224" width="32" height="32" rx="6" fill="#0B0C0E"/>
<rect x="192" y="224" width="32" height="32" rx="6" fill="#0B0C0E"/>
<rect x="224" y="224" width="32" height="32" rx="6" fill="#0B0C0E"/>
<rect x="256" y="224" width="32" height="32" rx="6" fill="#0B0C0E"/>
<rect x="320" y="224" width="32" height="32" rx="6" fill="#0B0C0E"/>
<rect x="384" y="224" width="32" height="32" rx="6" fill="#0B0C0E"/>
<rect x="416" y="224" width="32" height="32" rx="6" fill="#0B0C0E"/>
<rect x="448" y="224" width="32" height="32" rx="6" fill="#0B0C0E"/>
<rect x="512" y="224" width="32" height="32" rx="6" fill="#0B0C0E"/>
<rect x="544" y="224" width="32" height="32" rx="6" fill="#0B0C0E"/>
<rect x="704" y="224" width="32" height="32" rx="6" fill="#0B0C0E"/>
<rect x="768" y="224" width="32" height="32" rx="6" fill="#0B0C0E"/>
<rect x="800" y="224" width="32" height="32" rx="6" fill="#0B0C0E"/>
<rect x="832" y="224" width="32" height="32" rx="6" fill="#0B0C0E"/>
<rect x="896" y="224" width="32" height="32" rx="6" fill="#0B0C0E"/>
<rect x="128" y="256" width="32" height="32" rx="6" fill="#0B0C0E"/>
<rect x="192" y="256" width="32" height="32" rx="6" fill="#0B0C0E"/>
<rect x="224" y="256" width="32" height="32" rx="6" fill="#0B0C0E"/>
<rect x="256" y="256" width="32" height="32" rx="6" fill="#0B0C0E"/>
<rect x="320" y="256" width="32" height="32" rx="6" fill="#0B0C0E"/>
<rect x="384" y="256" width="32" height="32" rx="6" fill="#0B0C0E"/>
<rect x="480" y="256" width="32" height="32" rx="6" fill="#0B0C0E"/>
<rect x="544" y="256" width="32" height="32" rx="6" fill="#0B0C0E"/>
<rect x="576" y="256" width="32" height="32" rx="6" fill="#0B0C0E"/>
<rect x="640" y="256" width="32" height="32" rx="6" fill="#0B0C0E"/>
<rect x="704" y="256" width="32" height="32" rx="6" fill="#0B0C0E"/>
<rect x="768" y="256" width="32" height="32" rx="6" fill="#0B0C0E"/>
<rect x="800" y="256" width="32" height="32" rx="6" fill="#0B0C0E"/>
<rect x="832" y="256" width="32" height="32" rx="6" fill="#0B0C0E"/>
<rect x="896" y="256" width="32" height="32" rx="6" fill="#0B0C0E"/>
<rect x="128" y="288" width="32" height="32" rx="6" fill="#0B0C0E"/>
<rect x="320" y="288" width="32" height="32" rx="6" fill="#0B0C0E"/>
<rect x="448" y="288" width="32" height="32" rx="6" fill="#0B0C0E"/>
<rect x="512" y="288" width="32" height="32" rx="6" fill="#0B0C0E"/>
<rect x="640" y="288" width="32" height="32" rx="6" fill="#0B0C0E"/>
<rect x="704" y="288" width="32" height="32" rx="6" fill="#0B0C0E"/>
<rect x="896" y="288" width="32" height="32" rx="6" fill="#0B0C0E"/>
<rect x="128" y="320" width="32" height="32" rx="6" fill="#0B0C0E"/>
<rect x="160" y="320" width="32" height="32" rx="6" fill="#0B0C0E"/>
<rect x="192" y="320" width="32" height="32" rx="6" fill="#0B0C0E"/>
<rect x="224" y="320" width="32" height="32" rx="6" fill="#0B0C0E"/>
<rect x="256" y="320" width="32" height="32" rx="6" fill="#0B0C0E"/>
<rect x="288" y="320" width="32" height="32" rx="6" fill="#0B0C0E"/>
<rect x="320" y="320" width="32" height="32" rx="6" fill="#0B0C0E"/>
<rect x="384" y="320" width="32" height="32" rx="6" fill="#0B0C0E"/>
<rect x="448" y="320" width="32" height="32" rx="6" fill="#0B0C0E"/>
<rect x="512" y="320" width="32" height="32" rx="6" fill="#0B0C0E"/>
<rect x="576" y="320" width="32" height="32" rx="6" fill="#0B0C0E"/>
<rect x="640" y="320" width="32" height="32" rx="6" fill="#0B0C0E"/>
<rect x="704" y="320" width="32" height="32" rx="6" fill="#0B0C0E"/>
<rect x="736" y="320" width="32" height="32" rx="6" fill="#0B0C0E"/>
<rect x="768" y="320" width="32" height="32" rx="6" fill="#0B0C0E"/>
<rect x="800" y="320" width="32" height="32" rx="6" fill="#0B0C0E"/>
<rect x="832" y="320" width="32" height="32" rx="6" fill="#0B0C0E"/>
<rect x="864" y="320" width="32" height="32" rx="6" fill="#0B0C0E"/>
<rect x="896" y="320" width="32" height="32" rx="6" fill="#0B0C0E"/>
<rect x="384" y="352" width="32" height="32" rx="6" fill="#0B0C0E"/>
<rect x="416" y="352" width="32" height="32" rx="6" fill="#0B0C0E"/>
<rect x="480" y="352" width="32" height="32" rx="6" fill="#0B0C0E"/>
<rect x="544" y="352" width="32" height="32" rx="6" fill="#0B0C0E"/>
<rect x="608" y="352" width="32" height="32" rx="6" fill="#0B0C0E"/>
<rect x="640" y="352" width="32" height="32" rx="6" fill="#0B0C0E"/>
<rect x="160" y="384" width="32" height="32" rx="6" fill="#0B0C0E"/>
<rect x="224" y="384" width="32" height="32" rx="6" fill="#0B0C0E"/>
<rect x="256" y="384" width="32" height="32" rx="6" fill="#0B0C0E"/>
<rect x="288" y="384" width="32" height="32" rx="6" fill="#0B0C0E"/>
<rect x="320" y="384" width="32" height="32" rx="6" fill="#0B0C0E"/>
<rect x="384" y="384" width="32" height="32" rx="6" fill="#0B0C0E"/>
<rect x="512" y="384" width="32" height="32" rx="6" fill="#0B0C0E"/>
<rect x="576" y="384" width="32" height="32" rx="6" fill="#0B0C0E"/>
<rect x="640" y="384" width="32" height="32" rx="6" fill="#0B0C0E"/>
<rect x="672" y="384" width="32" height="32" rx="6" fill="#0B0C0E"/>
<rect x="704" y="384" width="32" height="32" rx="6" fill="#0B0C0E"/>
<rect x="768" y="384" width="32" height="32" rx="6" fill="#0B0C0E"/>
<rect x="800" y="384" width="32" height="32" rx="6" fill="#0B0C0E"/>
<rect x="864" y="384" width="32" height="32" rx="6" fill="#0B0C0E"/>
<rect x="128" y="416" width="32" height="32" rx="6" fill="#0B0C0E"/>
<rect x="160" y="416" width="32" height="32" rx="6" fill="#0B0C0E"/>
<rect x="192" y="416" width="32" height="32" rx="6" fill="#0B0C0E"/>
<rect x="256" y="416" width="32" height="32" rx="6" fill="#0B0C0E"/>
<rect x="352" y="416" width="32" height="32" rx="6" fill="#0B0C0E"/>
<rect x="416" y="416" width="32" height="32" rx="6" fill="#0B0C0E"/>
<rect x="480" y="416" width="32" height="32" rx="6" fill="#0B0C0E"/>
<rect x="544" y="416" width="32" height="32" rx="6" fill="#0B0C0E"/>
<rect x="576" y="416" width="32" height="32" rx="6" fill="#0B0C0E"/>
<rect x="608" y="416" width="32" height="32" rx="6" fill="#0B0C0E"/>
<rect x="736" y="416" width="32" height="32" rx="6" fill="#0B0C0E"/>
<rect x="768" y="416" width="32" height="32" rx="6" fill="#0B0C0E"/>
<rect x="800" y="416" width="32" height="32" rx="6" fill="#0B0C0E"/>
<rect x="832" y="416" width="32" height="32" rx="6" fill="#0B0C0E"/>
<rect x="864" y="416" width="32" height="32" rx="6" fill="#0B0C0E"/>
<rect x="128" y="448" width="32" height="32" rx="6" fill="#0B0C0E"/>
<rect x="288" y="448" width="32" height="32" rx="6" fill="#0B0C0E"/>
<rect x="320" y="448" width="32" height="32" rx="6" fill="#0B0C0E"/>
<rect x="480" y="448" width="32" height="32" rx="6" fill="#0B0C0E"/>
<rect x="512" y="448" width="32" height="32" rx="6" fill="#0B0C0E"/>
<rect x="544" y="448" width="32" height="32" rx="6" fill="#0B0C0E"/>
<rect x="608" y="448" width="32" height="32" rx="6" fill="#0B0C0E"/>
<rect x="640" y="448" width="32" height="32" rx="6" fill="#0B0C0E"/>
<rect x="672" y="448" width="32" height="32" rx="6" fill="#0B0C0E"/>
<rect x="768" y="448" width="32" height="32" rx="6" fill="#0B0C0E"/>
<rect x="800" y="448" width="32" height="32" rx="6" fill="#0B0C0E"/>
<rect x="896" y="448" width="32" height="32" rx="6" fill="#0B0C0E"/>
<rect x="224" y="480" width="32" height="32" rx="6" fill="#0B0C0E"/>
<rect x="256" y="480" width="32" height="32" rx="6" fill="#0B0C0E"/>
<rect x="384" y="480" width="32" height="32" rx="6" fill="#0B0C0E"/>
<rect x="416" y="480" width="32" height="32" rx="6" fill="#0B0C0E"/>
<rect x="512" y="480" width="32" height="32" rx="6" fill="#0B0C0E"/>
<rect x="576" y="480" width="32" height="32" rx="6" fill="#0B0C0E"/>
<rect x="640" y="480" width="32" height="32" rx="6" fill="#0B0C0E"/>
<rect x="704" y="480" width="32" height="32" rx="6" fill="#0B0C0E"/>
<rect x="736" y="480" width="32" height="32" rx="6" fill="#0B0C0E"/>
<rect x="800" y="480" width="32" height="32" rx="6" fill="#0B0C0E"/>
<rect x="832" y="480" width="32" height="32" rx="6" fill="#0B0C0E"/>
<rect x="864" y="480" width="32" height="32" rx="6" fill="#0B0C0E"/>
<rect x="896" y="480" width="32" height="32" rx="6" fill="#0B0C0E"/>
<rect x="128" y="512" width="32" height="32" rx="6" fill="#0B0C0E"/>
<rect x="288" y="512" width="32" height="32" rx="6" fill="#0B0C0E"/>
<rect x="320" y="512" width="32" height="32" rx="6" fill="#0B0C0E"/>
<rect x="352" y="512" width="32" height="32" rx="6" fill="#0B0C0E"/>
<rect x="384" y="512" width="32" height="32" rx="6" fill="#0B0C0E"/>
<rect x="480" y="512" width="32" height="32" rx="6" fill="#0B0C0E"/>
<rect x="544" y="512" width="32" height="32" rx="6" fill="#0B0C0E"/>
<rect x="576" y="512" width="32" height="32" rx="6" fill="#0B0C0E"/>
<rect x="608" y="512" width="32" height="32" rx="6" fill="#0B0C0E"/>
<rect x="640" y="512" width="32" height="32" rx="6" fill="#0B0C0E"/>
<rect x="704" y="512" width="32" height="32" rx="6" fill="#0B0C0E"/>
<rect x="736" y="512" width="32" height="32" rx="6" fill="#0B0C0E"/>
<rect x="896" y="512" width="32" height="32" rx="6" fill="#0B0C0E"/>
<rect x="128" y="544" width="32" height="32" rx="6" fill="#0B0C0E"/>
<rect x="160" y="544" width="32" height="32" rx="6" fill="#0B0C0E"/>
<rect x="192" y="544" width="32" height="32" rx="6" fill="#0B0C0E"/>
<rect x="448" y="544" width="32" height="32" rx="6" fill="#0B0C0E"/>
<rect x="480" y="544" width="32" height="32" rx="6" fill="#0B0C0E"/>
<rect x="512" y="544" width="32" height="32" rx="6" fill="#0B0C0E"/>
<rect x="544" y="544" width="32" height="32" rx="6" fill="#0B0C0E"/>
<rect x="576" y="544" width="32" height="32" rx="6" fill="#0B0C0E"/>
<rect x="608" y="544" width="32" height="32" rx="6" fill="#0B0C0E"/>
<rect x="640" y="544" width="32" height="32" rx="6" fill="#0B0C0E"/>
<rect x="768" y="544" width="32" height="32" rx="6" fill="#0B0C0E"/>
<rect x="864" y="544" width="32" height="32" rx="6" fill="#0B0C0E"/>
<rect x="128" y="576" width="32" height="32" rx="6" fill="#0B0C0E"/>
<rect x="160" y="576" width="32" height="32" rx="6" fill="#0B0C0E"/>
<rect x="192" y="576" width="32" height="32" rx="6" fill="#0B0C0E"/>
<rect x="224" y="576" width="32" height="32" rx="6" fill="#0B0C0E"/>
<rect x="288" y="576" width="32" height="32" rx="6" fill="#0B0C0E"/>
<rect x="320" y="576" width="32" height="32" rx="6" fill="#0B0C0E"/>
<rect x="384" y="576" width="32" height="32" rx="6" fill="#0B0C0E"/>
<rect x="416" y="576" width="32" height="32" rx="6" fill="#0B0C0E"/>
<rect x="480" y="576" width="32" height="32" rx="6" fill="#0B0C0E"/>
<rect x="544" y="576" width="32" height="32" rx="6" fill="#0B0C0E"/>
<rect x="608" y="576" width="32" height="32" rx="6" fill="#0B0C0E"/>
<rect x="672" y="576" width="32" height="32" rx="6" fill="#0B0C0E"/>
<rect x="704" y="576" width="32" height="32" rx="6" fill="#0B0C0E"/>
<rect x="768" y="576" width="32" height="32" rx="6" fill="#0B0C0E"/>
<rect x="800" y="576" width="32" height="32" rx="6" fill="#0B0C0E"/>
<rect x="832" y="576" width="32" height="32" rx="6" fill="#0B0C0E"/>
<rect x="864" y="576" width="32" height="32" rx="6" fill="#0B0C0E"/>
<rect x="896" y="576" width="32" height="32" rx="6" fill="#0B0C0E"/>
<rect x="128" y="608" width="32" height="32" rx="6" fill="#0B0C0E"/>
<rect x="256" y="608" width="32" height="32" rx="6" fill="#0B0C0E"/>
<rect x="288" y="608" width="32" height="32" rx="6" fill="#0B0C0E"/>
<rect x="352" y="608" width="32" height="32" rx="6" fill="#0B0C0E"/>
<rect x="448" y="608" width="32" height="32" rx="6" fill="#0B0C0E"/>
<rect x="480" y="608" width="32" height="32" rx="6" fill="#0B0C0E"/>
<rect x="512" y="608" width="32" height="32" rx="6" fill="#0B0C0E"/>
<rect x="544" y="608" width="32" height="32" rx="6" fill="#0B0C0E"/>
<rect x="672" y="608" width="32" height="32" rx="6" fill="#0B0C0E"/>
<rect x="736" y="608" width="32" height="32" rx="6" fill="#0B0C0E"/>
<rect x="800" y="608" width="32" height="32" rx="6" fill="#0B0C0E"/>
<rect x="832" y="608" width="32" height="32" rx="6" fill="#0B0C0E"/>
<rect x="896" y="608" width="32" height="32" rx="6" fill="#0B0C0E"/>
<rect x="128" y="640" width="32" height="32" rx="6" fill="#0B0C0E"/>
<rect x="256" y="640" width="32" height="32" rx="6" fill="#0B0C0E"/>
<rect x="288" y="640" width="32" height="32" rx="6" fill="#0B0C0E"/>
<rect x="320" y="640" width="32" height="32" rx="6" fill="#0B0C0E"/>
<rect x="576" y="640" width="32" height="32" rx="6" fill="#0B0C0E"/>
<rect x="608" y="640" width="32" height="32" rx="6" fill="#0B0C0E"/>
<rect x="640" y="640" width="32" height="32" rx="6" fill="#0B0C0E"/>
<rect x="672" y="640" width="32" height="32" rx="6" fill="#0B0C0E"/>
<rect x="704" y="640" width="32" height="32" rx="6" fill="#0B0C0E"/>
<rect x="736" y="640" width="32" height="32" rx="6" fill="#0B0C0E"/>
<rect x="768" y="640" width="32" height="32" rx="6" fill="#0B0C0E"/>
<rect x="832" y="640" width="32" height="32" rx="6" fill="#0B0C0E"/>
<rect x="864" y="640" width="32" height="32" rx="6" fill="#0B0C0E"/>
<rect x="384" y="672" width="32" height="32" rx="6" fill="#0B0C0E"/>
<rect x="416" y="672" width="32" height="32" rx="6" fill="#0B0C0E"/>
<rect x="448" y="672" width="32" height="32" rx="6" fill="#0B0C0E"/>
<rect x="480" y="672" width="32" height="32" rx="6" fill="#0B0C0E"/>
<rect x="608" y="672" width="32" height="32" rx="6" fill="#0B0C0E"/>
<rect x="640" y="672" width="32" height="32" rx="6" fill="#0B0C0E"/>
<rect x="768" y="672" width="32" height="32" rx="6" fill="#0B0C0E"/>
<rect x="832" y="672" width="32" height="32" rx="6" fill="#0B0C0E"/>
<rect x="864" y="672" width="32" height="32" rx="6" fill="#0B0C0E"/>
<rect x="128" y="704" width="32" height="32" rx="6" fill="#0B0C0E"/>
<rect x="160" y="704" width="32" height="32" rx="6" fill="#0B0C0E"/>
<rect x="192" y="704" width="32" height="32" rx="6" fill="#0B0C0E"/>
<rect x="224" y="704" width="32" height="32" rx="6" fill="#0B0C0E"/>
<rect x="256" y="704" width="32" height="32" rx="6" fill="#0B0C0E"/>
<rect x="288" y="704" width="32" height="32" rx="6" fill="#0B0C0E"/>
<rect x="320" y="704" width="32" height="32" rx="6" fill="#0B0C0E"/>
<rect x="416" y="704" width="32" height="32" rx="6" fill="#0B0C0E"/>
<rect x="512" y="704" width="32" height="32" rx="6" fill="#0B0C0E"/>
<rect x="544" y="704" width="32" height="32" rx="6" fill="#0B0C0E"/>
<rect x="576" y="704" width="32" height="32" rx="6" fill="#0B0C0E"/>
<rect x="640" y="704" width="32" height="32" rx="6" fill="#0B0C0E"/>
<rect x="704" y="704" width="32" height="32" rx="6" fill="#0B0C0E"/>
<rect x="768" y="704" width="32" height="32" rx="6" fill="#0B0C0E"/>
<rect x="896" y="704" width="32" height="32" rx="6" fill="#0B0C0E"/>
<rect x="128" y="736" width="32" height="32" rx="6" fill="#0B0C0E"/>
<rect x="320" y="736" width="32" height="32" rx="6" fill="#0B0C0E"/>
<rect x="384" y="736" width="32" height="32" rx="6" fill="#0B0C0E"/>
<rect x="416" y="736" width="32" height="32" rx="6" fill="#0B0C0E"/>
<rect x="448" y="736" width="32" height="32" rx="6" fill="#0B0C0E"/>
<rect x="512" y="736" width="32" height="32" rx="6" fill="#0B0C0E"/>
<rect x="608" y="736" width="32" height="32" rx="6" fill="#0B0C0E"/>
<rect x="640" y="736" width="32" height="32" rx="6" fill="#0B0C0E"/>
<rect x="768" y="736" width="32" height="32" rx="6" fill="#0B0C0E"/>
<rect x="896" y="736" width="32" height="32" rx="6" fill="#0B0C0E"/>
<rect x="128" y="768" width="32" height="32" rx="6" fill="#0B0C0E"/>
<rect x="192" y="768" width="32" height="32" rx="6" fill="#0B0C0E"/>
<rect x="224" y="768" width="32" height="32" rx="6" fill="#0B0C0E"/>
<rect x="256" y="768" width="32" height="32" rx="6" fill="#0B0C0E"/>
<rect x="320" y="768" width="32" height="32" rx="6" fill="#0B0C0E"/>
<rect x="384" y="768" width="32" height="32" rx="6" fill="#0B0C0E"/>
<rect x="448" y="768" width="32" height="32" rx="6" fill="#0B0C0E"/>
<rect x="608" y="768" width="32" height="32" rx="6" fill="#0B0C0E"/>
<rect x="640" y="768" width="32" height="32" rx="6" fill="#0B0C0E"/>
<rect x="672" y="768" width="32" height="32" rx="6" fill="#0B0C0E"/>
<rect x="704" y="768" width="32" height="32" rx="6" fill="#0B0C0E"/>
<rect x="736" y="768" width="32" height="32" rx="6" fill="#0B0C0E"/>
<rect x="768" y="768" width="32" height="32" rx="6" fill="#0B0C0E"/>
<rect x="864" y="768" width="32" height="32" rx="6" fill="#0B0C0E"/>
<rect x="896" y="768" width="32" height="32" rx="6" fill="#0B0C0E"/>
<rect x="128" y="800" width="32" height="32" rx="6" fill="#0B0C0E"/>
<rect x="192" y="800" width="32" height="32" rx="6" fill="#0B0C0E"/>
<rect x="224" y="800" width="32" height="32" rx="6" fill="#0B0C0E"/>
<rect x="256" y="800" width="32" height="32" rx="6" fill="#0B0C0E"/>
<rect x="320" y="800" width="32" height="32" rx="6" fill="#0B0C0E"/>
<rect x="384" y="800" width="32" height="32" rx="6" fill="#0B0C0E"/>
<rect x="480" y="800" width="32" height="32" rx="6" fill="#0B0C0E"/>
<rect x="544" y="800" width="32" height="32" rx="6" fill="#0B0C0E"/>
<rect x="576" y="800" width="32" height="32" rx="6" fill="#0B0C0E"/>
<rect x="608" y="800" width="32" height="32" rx="6" fill="#0B0C0E"/>
<rect x="640" y="800" width="32" height="32" rx="6" fill="#0B0C0E"/>
<rect x="672" y="800" width="32" height="32" rx="6" fill="#0B0C0E"/>
<rect x="704" y="800" width="32" height="32" rx="6" fill="#0B0C0E"/>
<rect x="864" y="800" width="32" height="32" rx="6" fill="#0B0C0E"/>
<rect x="896" y="800" width="32" height="32" rx="6" fill="#0B0C0E"/>
<rect x="128" y="832" width="32" height="32" rx="6" fill="#0B0C0E"/>
<rect x="192" y="832" width="32" height="32" rx="6" fill="#0B0C0E"/>
<rect x="224" y="832" width="32" height="32" rx="6" fill="#0B0C0E"/>
<rect x="256" y="832" width="32" height="32" rx="6" fill="#0B0C0E"/>
<rect x="320" y="832" width="32" height="32" rx="6" fill="#0B0C0E"/>
<rect x="512" y="832" width="32" height="32" rx="6" fill="#0B0C0E"/>
<rect x="544" y="832" width="32" height="32" rx="6" fill="#0B0C0E"/>
<rect x="608" y="832" width="32" height="32" rx="6" fill="#0B0C0E"/>
<rect x="672" y="832" width="32" height="32" rx="6" fill="#0B0C0E"/>
<rect x="768" y="832" width="32" height="32" rx="6" fill="#0B0C0E"/>
<rect x="800" y="832" width="32" height="32" rx="6" fill="#0B0C0E"/>
<rect x="832" y="832" width="32" height="32" rx="6" fill="#0B0C0E"/>
<rect x="864" y="832" width="32" height="32" rx="6" fill="#0B0C0E"/>
<rect x="896" y="832" width="32" height="32" rx="6" fill="#0B0C0E"/>
<rect x="128" y="864" width="32" height="32" rx="6" fill="#0B0C0E"/>
<rect x="320" y="864" width="32" height="32" rx="6" fill="#0B0C0E"/>
<rect x="384" y="864" width="32" height="32" rx="6" fill="#0B0C0E"/>
<rect x="480" y="864" width="32" height="32" rx="6" fill="#0B0C0E"/>
<rect x="512" y="864" width="32" height="32" rx="6" fill="#0B0C0E"/>
<rect x="544" y="864" width="32" height="32" rx="6" fill="#0B0C0E"/>
<rect x="576" y="864" width="32" height="32" rx="6" fill="#0B0C0E"/>
<rect x="608" y="864" width="32" height="32" rx="6" fill="#0B0C0E"/>
<rect x="672" y="864" width="32" height="32" rx="6" fill="#0B0C0E"/>
<rect x="736" y="864" width="32" height="32" rx="6" fill="#0B0C0E"/>
<rect x="768" y="864" width="32" height="32" rx="6" fill="#0B0C0E"/>
<rect x="832" y="864" width="32" height="32" rx="6" fill="#0B0C0E"/>
<rect x="864" y="864" width="32" height="32" rx="6" fill="#0B0C0E"/>
<rect x="896" y="864" width="32" height="32" rx="6" fill="#0B0C0E"/>
<rect x="128" y="896" width="32" height="32" rx="6" fill="#0B0C0E"/>
<rect x="160" y="896" width="32" height="32" rx="6" fill="#0B0C0E"/>
<rect x="192" y="896" width="32" height="32" rx="6" fill="#0B0C0E"/>
<rect x="224" y="896" width="32" height="32" rx="6" fill="#0B0C0E"/>
<rect x="256" y="896" width="32" height="32" rx="6" fill="#0B0C0E"/>
<rect x="288" y="896" width="32" height="32" rx="6" fill="#0B0C0E"/>
<rect x="320" y="896" width="32" height="32" rx="6" fill="#0B0C0E"/>
<rect x="480" y="896" width="32" height="32" rx="6" fill="#0B0C0E"/>
<rect x="576" y="896" width="32" height="32" rx="6" fill="#0B0C0E"/>
<rect x="640" y="896" width="32" height="32" rx="6" fill="#0B0C0E"/>
<rect x="704" y="896" width="32" height="32" rx="6" fill="#0B0C0E"/>
<rect x="800" y="896" width="32" height="32" rx="6" fill="#0B0C0E"/>
<rect x="896" y="896" width="32" height="32" rx="6" fill="#0B0C0E"/>
</svg>